<svg width="181" height="183" viewBox="0 0 181 183" fill="none" xmlns="http://www.w3.org/2000/svg">
<path opacity="0.1" d="M-92.3127 40.7973C-107.809 45.9997 -129.212 47.4178 -150.68 48.2216C-172.147 49.0254 -194.362 49.3144 -213 52.5214C-224.988 54.584 -235.932 58.4167 -235.649 65.3722C-235.366 72.0746 -224.87 79.7812 -214.215 86.5934C-206.202 91.7182 -197.334 96.9443 -186.391 100.426C-178.795 102.843 -170.747 104.238 -162.973 106.38C-135.985 113.796 -117.449 128.586 -106.757 141.821C-101.735 148.03 -97.7429 154.263 -91.2773 160.434C-84.8117 166.606 -75.3549 172.907 -63.1037 177.045C-50.9509 181.15 -37.6183 182.611 -25.8968 182.745C-2.08326 183.018 16.8191 178.468 34.0635 173.388C72.2283 162.148 105.299 148.028 138.28 133.944C150.484 128.73 162.736 123.492 172.237 117.03C177.513 113.44 182.011 109.231 180.519 103.789C178.623 96.8833 166.102 88.7524 151.335 84.8376C126.558 78.2714 102.192 83.6128 78.3027 75.5296C65.1623 71.0798 56.4882 63.8402 50.9272 57.1732C39.0067 42.8736 35.4833 27.672 12.6977 14.8332C-2.95586 6.0135 -26.1539 0.0656567 -44.6302 0.129812C-64.0234 0.181717 -78.7334 6.74689 -73.8136 17.0226C-68.7443 27.6108 -78.6335 36.203 -92.3127 40.7973Z" fill="#4A80F0"/>
</svg>
