<svg width="513" height="420" viewBox="0 0 513 420" fill="none" xmlns="http://www.w3.org/2000/svg">
<g clip-path="url(#clip0_1_13)">
<path d="M478.293 362.057L479.17 340.944C488.311 335.711 498.507 332.948 508.872 332.892C494.607 345.381 496.389 369.456 486.718 386.251C483.664 391.464 479.553 395.875 474.691 399.156C469.829 402.437 464.339 404.505 458.629 405.205L446.691 413.032C445.053 403.253 445.414 393.21 447.75 383.596C450.085 373.981 454.34 365.022 460.22 357.337C463.558 353.061 467.387 349.252 471.614 346.001C474.473 354.074 478.293 362.057 478.293 362.057Z" fill="#F2F2F2"/>
<path d="M297.264 418.288C291.183 417.825 289.597 419.109 280.398 418.288H263.532L265.726 375.068L292.278 386.461L424.223 389.93L424.146 390.169C424.086 390.354 418.228 408.703 422.807 415.652L422.997 415.939L422.626 415.943L301.587 417.132C300.265 417.144 298.575 418.388 297.264 418.288Z" fill="#F2F2F2"/>
<path d="M304.107 418.853C292.362 417.958 280.199 422.848 270.048 417.327L261.934 417.854L261.911 417.781C261.848 417.58 258.015 385.284 265.764 372.762L266.105 372.211L266.372 375.177L263.817 415.408L269.479 413.385C283.23 420.315 299.584 415.738 315.322 415.674L422.429 415.251C424.673 415.243 426.542 416.884 426.602 418.911L426.608 419.109L310.577 419.099C308.413 419.099 306.257 419.017 304.107 418.853Z" fill="#CCCCCC"/>
<path d="M416.784 398.646L296.251 396.081L296.127 396.032L267.65 384.603L268.188 383.065L296.543 394.446L416.814 397.004L416.784 398.646Z" fill="#E6E6E6"/>
<path d="M416.14 405.557L295.608 402.992L295.485 402.943L267.007 391.514L267.545 389.977L295.901 401.357L416.171 403.916L416.14 405.557Z" fill="#E6E6E6"/>
<path d="M415.497 412.469L294.965 409.903L294.842 409.854L266.364 398.425L266.902 396.887L295.257 408.268L415.528 410.828L415.497 412.469Z" fill="#E6E6E6"/>
<path d="M304.94 390.376C293.764 389.568 282.869 386.275 272.947 380.71L264.592 375.965L264.81 373.619C264.871 373.275 265.049 372.967 265.309 372.754C265.569 372.542 265.893 372.44 266.22 372.468L266.957 372.478L379.365 374.249C386.722 374.347 394.012 375.764 400.932 378.441L425.423 387.962L425.41 388.101C425.205 390.311 423.124 392.018 420.673 391.988L309.947 390.598C308.273 390.577 306.603 390.503 304.94 390.376Z" fill="#E6E6E6"/>
<path d="M425.188 388.47L425.163 388.469L290.366 385.161L290.272 385.115L265.969 373.063L266.216 372.66L266.954 372.67L290.591 384.398L424.139 387.671L425.209 387.699L425.188 388.47Z" fill="#CCCCCC"/>
<path d="M320.395 373.514L318.684 373.488L280.053 372.876L278.222 372.848C287.049 382.911 306.566 385.429 335.173 381.53L320.395 373.514Z" fill="#CCCCCC"/>
<path d="M429.008 132.834L431.365 138.705L427.513 159.552L388.22 153.702L388.534 128.281L389.323 122.714L429.008 132.834Z" fill="#FFB6B6"/>
<path d="M449.309 403.019H440.64L436.514 367.214H449.309V403.019Z" fill="#FFB6B6"/>
<path d="M423.523 415.137C423.524 416.189 423.914 417.197 424.609 417.941C425.303 418.684 426.245 419.102 427.227 419.103H443.719L446.562 412.819L447.666 419.103H453.882L452.135 396.658L449.309 396.481L439.815 395.876L438.285 395.773V402.132L425.123 411.87C424.629 412.235 424.226 412.723 423.947 413.292C423.668 413.862 423.523 414.495 423.523 415.137Z" fill="#2F2E41"/>
<path d="M369.184 361.974H360.515L355.415 309.261L371.704 308.219L369.184 361.974Z" fill="#FFB6B6"/>
<path d="M343.397 374.092C343.398 375.143 343.788 376.152 344.483 376.895C345.177 377.639 346.119 378.057 347.101 378.058H363.593L366.436 371.774L367.54 378.058H373.756L372.009 355.612L369.488 355.454L359.829 354.83L358.159 354.728V361.086L344.997 370.824C344.503 371.19 344.1 371.678 343.821 372.247C343.542 372.816 343.397 373.449 343.397 374.092Z" fill="#2F2E41"/>
<path d="M452.988 372.143H452.955L451.287 313.925C452.366 311.697 452.914 309.217 452.881 306.707C452.849 304.197 452.237 301.735 451.101 299.539L450.862 299.077L451.481 296.005C452.276 292.058 451.911 287.944 450.437 284.228L448.882 229.922C454.438 191.361 427.957 166.212 427.957 166.212L430.391 146.001L387.56 147.044L388.289 166.212L379.772 197.545C375.29 244.304 345.126 273.694 349.711 318.408C349.72 318.537 349.702 318.666 349.658 318.786C349.193 320.301 349.029 321.903 349.178 323.49C349.326 325.076 349.783 326.612 350.519 327.998C350.71 328.352 350.841 328.738 350.907 329.141C351.852 336.98 351.975 327.064 353.226 334.834L352.983 334.965C352.106 335.29 351.73 336.591 352.142 337.871C352.555 339.152 353.601 339.927 354.478 339.603L377.374 339.865C378.251 339.541 378.628 338.24 378.215 336.96C377.802 335.679 376.756 334.903 375.879 335.227L374.455 335.999L376.838 327.65L377.673 326.815C378.074 326.414 378.384 325.923 378.582 325.376C378.779 324.829 378.859 324.241 378.815 323.657C378.77 323.073 378.603 322.507 378.325 322.001C378.048 321.496 377.667 321.064 377.212 320.739L379.586 307.171L379.249 296.91L379.943 285.268L409.986 238.653L422.141 303.043L434.556 372.791C434.267 373.071 434.049 373.425 433.924 373.821C433.8 374.217 433.772 374.64 433.844 375.051C433.958 375.624 434.255 376.137 434.684 376.502C435.113 376.866 435.647 377.06 436.194 377.049H453.049C453.402 377.049 453.751 376.961 454.067 376.793C454.384 376.625 454.66 376.38 454.874 376.079C455.088 375.778 455.234 375.428 455.301 375.057C455.368 374.685 455.354 374.302 455.26 373.937C455.118 373.413 454.818 372.953 454.408 372.628C453.997 372.304 453.498 372.134 452.988 372.143Z" fill="#2F2E41"/>
<path d="M438 33.7724C438.001 37.4894 437.15 41.1499 435.522 44.4325C433.894 47.7152 431.538 50.5197 428.661 52.5998C425.785 54.6798 422.475 55.972 419.023 56.3627C415.571 56.7534 412.083 56.2307 408.863 54.8406C405.644 53.4505 402.793 51.2354 400.56 48.3898C398.326 45.5441 396.78 42.155 396.055 38.5199C395.331 34.8848 395.451 31.1148 396.405 27.5409C397.359 23.9671 399.117 20.6985 401.526 18.0223L401.628 17.9135C401.797 17.7226 401.967 17.5319 402.145 17.3502C402.146 17.3502 402.148 17.35 402.149 17.3495C402.15 17.3491 402.151 17.3484 402.151 17.3476C402.152 17.3467 402.153 17.3457 402.153 17.3446C402.154 17.3435 402.154 17.3423 402.154 17.3411C402.397 17.151 402.621 16.9349 402.824 16.6962C405.687 12.4127 408.932 8.82086 416.794 11.0648C428.113 14.2954 438 21.2287 438 33.7724Z" fill="#2F2E41"/>
<path d="M321.512 24.0515C321.464 25.2664 321.665 26.4778 322.102 27.6004C322.538 28.723 323.199 29.7295 324.038 30.549C324.877 31.3684 325.874 31.9809 326.958 32.3433C328.042 32.7058 329.187 32.8093 330.312 32.6466L385 80.7079L393.354 64.9858L336.97 22.6868C336.59 20.6805 335.535 18.8934 334.006 17.664C332.477 16.4347 330.58 15.8487 328.675 16.0169C326.77 16.1851 324.988 17.0959 323.668 18.5768C322.348 20.0576 321.581 22.0056 321.512 24.0515V24.0515Z" fill="#FFB6B6"/>
<path d="M408.093 94.8818C408.093 94.8818 408.076 93.1508 399.382 93.2174C388.591 93.3 358.87 76.7096 361.47 61.085C360.235 61.6823 358.851 61.8228 357.533 61.4845C356.216 61.1462 355.042 60.3483 354.195 59.2165L368.664 44.2993C373.204 44.6277 373.25 47.881 372.861 49.7491L384.49 54.6969L414.776 73.3292L409.428 92.0449L408.093 94.8818Z" fill="#4A80F0"/>
<path d="M411.57 58.0676C421.39 58.0676 429.352 49.5425 429.352 39.0263C429.352 28.5101 421.39 19.985 411.57 19.985C401.749 19.985 393.788 28.5101 393.788 39.0263C393.788 49.5425 401.749 58.0676 411.57 58.0676Z" fill="#FFB7B7"/>
<path d="M387.13 133.736C386.148 135.139 385.647 136.862 385.71 138.615C385.773 140.368 386.397 142.044 387.478 143.362C387.487 143.92 387.565 144.46 388.304 146.462C388.401 146.656 388.514 146.84 388.643 147.011C388.667 147.053 388.693 147.093 388.721 147.132C389.499 148.21 390.582 148.991 391.808 149.357L424.357 159.086L428.661 160.371L429.417 160.594L429.835 154.301C430.802 153.442 431.451 152.24 431.663 150.913C431.875 149.586 431.637 148.222 430.991 147.067L430.391 146.006L433.886 135.942L434.225 134.946L443.136 109.261L443.145 107.548L443.162 105.779L443.249 93.4345C443.253 89.5439 442.416 85.7052 440.802 82.2195C439.188 78.7338 436.841 75.696 433.947 73.3444C431.31 71.1872 428.271 69.6631 425.036 68.8758L424.966 68.8665L421.445 63.7927L407.161 65.3195L405.979 67.9169L404.544 71.0449L394.19 77.6454L390.651 86.4523L388.26 92.4105C384.557 95.2593 382.349 98.9179 381.714 103.275C380.358 112.529 386.409 121.792 387.13 122.853L387.313 133.475L387.13 133.736Z" fill="#4A80F0"/>
<path d="M430.179 44.0181C430.018 43.9908 429.857 43.9545 429.696 43.9272C426.922 43.4004 424.148 42.8827 421.383 42.3468L421.129 35.6345L417.778 41.6473C410.136 44.3632 402.985 42.8282 396.259 39.4402C394.04 38.3123 391.887 37.0414 389.812 35.6345C389.129 24.2824 393.415 17.015 401.39 17.7772C401.682 17.805 401.891 17.4866 402.145 17.3502C402.146 17.3502 402.147 17.35 402.149 17.3495C402.15 17.3491 402.15 17.3484 402.151 17.3476C402.152 17.3467 402.153 17.3457 402.153 17.3446C402.153 17.3435 402.154 17.3423 402.154 17.3411C402.586 17.1231 403.027 16.9142 403.469 16.7235C406.922 15.2784 410.687 14.9125 414.327 15.6682C417.966 16.4239 421.331 18.2702 424.03 20.9925C429.458 26.5424 431.901 35.7071 430.179 44.0181Z" fill="#2F2E41"/>
<path d="M429.696 43.9272C429.696 43.9272 424.428 22.8727 401.848 18.0132C401.823 18.0042 401.738 17.9679 401.628 17.9134C401.56 17.868 401.475 17.8225 401.39 17.7772C401.645 17.6227 401.891 17.4866 402.145 17.3502C402.146 17.3502 402.148 17.35 402.149 17.3495C402.15 17.3491 402.151 17.3484 402.151 17.3476C402.152 17.3467 402.153 17.3457 402.153 17.3446C402.154 17.3435 402.154 17.3423 402.154 17.3411C402.374 17.1231 402.595 16.9051 402.824 16.6962L403.469 16.7235C403.469 16.7235 426.125 12.8814 429.696 43.9272Z" fill="#FD6584"/>
<path d="M438.383 176.65C437.964 177.033 437.456 177.285 436.913 177.379C436.37 177.473 435.813 177.405 435.304 177.183C434.29 176.723 433.389 176.018 432.673 175.123C429.748 171.837 427.658 167.804 426.602 163.408L427.578 161.55C427.195 159.258 427.555 156.895 428.599 154.853C429.643 152.811 431.308 151.213 433.317 150.323C434.46 149.804 435.727 149.686 436.937 149.986C437.537 150.146 438.085 150.476 438.524 150.941C438.963 151.407 439.277 151.991 439.431 152.632C439.807 154.62 438.261 156.415 436.695 157.556C433.967 159.539 430.813 160.747 427.529 161.068C431.546 163.492 435.018 166.829 437.702 170.843C438.322 171.681 438.78 172.643 439.047 173.672C439.176 174.189 439.183 174.731 439.067 175.251C438.95 175.771 438.715 176.252 438.383 176.65Z" fill="#2F2E41"/>
<path d="M213.615 419.779H512.044C512.298 419.779 512.541 419.671 512.72 419.479C512.899 419.287 513 419.027 513 418.755C513 418.484 512.899 418.223 512.72 418.031C512.541 417.839 512.298 417.731 512.044 417.731H213.615C213.362 417.731 213.118 417.839 212.939 418.031C212.76 418.223 212.659 418.484 212.659 418.755C212.659 419.027 212.76 419.287 212.939 419.479C213.118 419.671 213.362 419.779 213.615 419.779Z" fill="#CCCCCC"/>
<path d="M292.872 156.604V157.139C291.797 155.79 290.7 154.453 289.614 153.116C289.158 152.558 288.702 152 288.246 151.442C286.313 149.093 284.369 146.752 282.415 144.419C280.45 142.093 278.484 139.768 276.497 137.454C276.019 136.896 275.542 136.338 275.053 135.779C274.662 135.31 274.237 134.875 273.782 134.477C273.324 134.068 272.797 133.757 272.23 133.558C271.577 133.365 270.888 133.357 270.232 133.535C269.482 133.721 268.766 134.012 268.038 134.256C267.289 134.524 266.551 134.779 265.802 135.035C264.303 135.558 262.815 136.082 261.317 136.605C261.299 136.613 261.279 136.617 261.26 136.617C261.24 136.617 261.221 136.612 261.203 136.604C261.185 136.596 261.169 136.584 261.155 136.569C261.142 136.554 261.131 136.537 261.123 136.518L261.121 136.512C261.113 136.49 261.109 136.466 261.11 136.442C261.111 136.418 261.117 136.395 261.127 136.374C261.138 136.353 261.152 136.335 261.17 136.32C261.188 136.306 261.208 136.296 261.23 136.291C261.599 136.163 261.979 136.035 262.359 135.907C263.869 135.372 265.367 134.849 266.876 134.326C267.626 134.059 268.375 133.803 269.124 133.547C269.819 133.264 270.553 133.107 271.296 133.082C272.509 133.175 273.646 133.747 274.488 134.686C274.955 135.152 275.379 135.64 275.802 136.14C276.302 136.721 276.801 137.303 277.301 137.884C279.309 140.233 281.304 142.589 283.283 144.953C285.271 147.325 287.24 149.701 289.191 152.081C289.332 152.256 289.473 152.43 289.614 152.604C290.711 153.93 291.786 155.267 292.872 156.604Z" fill="white"/>
<path d="M273.614 136.619C273.204 136.053 272.657 135.618 272.033 135.361L271.415 135.384C276.262 143.46 282.611 150.378 290.066 155.708C284.582 149.345 279.098 142.982 273.614 136.619Z" fill="white"/>
<path d="M374.753 220.541L350.154 79.501C349.734 77.176 348.587 75.0732 346.904 73.5372C345.221 72.0012 343.1 71.1232 340.889 71.0472C340.69 71.0425 340.492 71.0425 340.293 71.0472L323.535 71.6909L321.732 71.7619L313.369 72.0838L311.565 72.1501L306.186 72.3584L197.711 76.5285C197.548 76.5379 197.38 76.5379 197.216 76.5331L172.909 75.9888L163.913 75.79L163.626 75.7853L156.987 75.6338L99.1338 74.3463L83.7954 74.0008L76.2322 73.8351L74.4199 73.7925L65.7959 73.6032L63.988 73.5606L55.165 73.3665L53.3571 73.3239L43.6634 73.1062L42.1428 73.073L33.4967 72.879L32.1308 72.8506H31.9319C29.6366 72.8606 27.4184 73.7393 25.6696 75.3313C23.9207 76.9234 22.7539 79.1262 22.3752 81.5505L0.127789 227.906C-0.0981316 229.389 -0.0203498 230.906 0.355729 232.353C0.731808 233.8 1.39718 235.143 2.30579 236.287C3.21441 237.432 4.34452 238.351 5.61784 238.981C6.89115 239.612 8.27724 239.938 9.68007 239.938H137.445C139.325 239.944 141.155 240.59 142.67 241.784L145.092 243.706C146.761 245.022 148.779 245.735 150.851 245.741C175.527 238.767 201.471 238.767 226.147 245.741C227.419 245.745 228.68 245.478 229.855 244.956C231.03 244.435 232.097 243.669 232.994 242.702C234.528 241.061 236.575 240.084 238.74 239.962L365.745 232.796C367.122 232.719 368.468 232.327 369.692 231.648C370.917 230.968 371.992 230.017 372.845 228.856C373.698 227.696 374.309 226.354 374.639 224.92C374.968 223.485 375.007 221.993 374.753 220.541V220.541Z" fill="#CCCCCC"/>
<path d="M339.949 198.547C339.786 203.327 337.857 207.841 334.586 211.099C331.316 214.356 326.972 216.089 322.508 215.918C315.133 215.638 306.333 215.499 296.78 215.712C265.587 216.427 226.398 221.024 202.824 237.557C199.861 239.639 196.36 240.668 192.82 240.496C192.559 240.479 192.306 240.463 192.045 240.438C188.375 240.079 184.916 238.438 182.202 235.767C169.216 223.043 139.433 207.635 71.2576 206.551C70.9739 206.551 70.6979 206.535 70.4219 206.518C68.2138 206.369 66.0547 205.756 64.0681 204.713C62.0814 203.671 60.3062 202.219 58.8439 200.441C57.3815 198.663 56.2607 196.594 55.5455 194.352C54.8302 192.11 54.5347 189.739 54.6757 187.375L61.3759 73.5064L62.3801 56.4398L64.1434 26.5833C64.3212 23.5766 65.5613 20.7551 67.6117 18.6921C69.6621 16.6291 72.3691 15.4793 75.1826 15.4764H75.2516L115.867 15.7309C132.978 16.56 147.15 18.8942 158.383 22.7333C162.221 24.0074 165.954 25.6163 169.545 27.5438C174.451 30.0905 178.858 33.6149 182.532 37.9283C184.82 40.6838 187.941 42.4886 191.348 43.0262C191.876 43.1107 192.409 43.1627 192.942 43.1821C196.084 43.3213 199.184 42.3713 201.782 40.4731C228.314 21.4363 282.383 19.9915 312.243 20.8124C316.419 20.9167 320.409 22.6818 323.436 25.7639C326.463 28.846 328.31 33.0243 328.618 37.485L329.829 54.4696L331.033 71.4049L337.978 169.282L339.91 196.511C339.958 197.189 339.97 197.868 339.949 198.547Z" fill="#F2F2F2"/>
<path d="M81.3619 55.5448C105.838 47.1828 133.144 49.3966 156.331 61.177C162.947 64.5208 169.195 68.6418 174.961 73.464C176.592 74.8347 178.913 72.3829 177.264 70.9975C155.967 53.3088 129.208 44.9059 102.362 47.477C94.9354 48.1887 87.6032 49.7661 80.4959 52.1812C78.5062 52.8609 79.3566 56.2299 81.3618 55.5448H81.3619Z" fill="#3F3D56"/>
<path d="M216.044 74.8172C238.8 62.0092 266.05 59.2162 290.792 66.4866C297.846 68.5543 304.662 71.4567 311.116 75.1399C312.965 76.1964 314.613 73.1863 312.76 72.128C289.18 58.6542 260.873 55.5525 235.122 63.0633C227.939 65.1623 220.99 68.0936 214.4 71.8052C212.543 72.8501 214.188 75.8618 216.044 74.8172Z" fill="#3F3D56"/>
<path d="M216.044 98.072C238.8 85.264 266.05 82.471 290.792 89.7414C297.846 91.8092 304.662 94.7115 311.116 98.3948C312.965 99.4512 314.613 96.4411 312.76 95.3828C289.18 81.909 260.873 78.8073 235.122 86.3181C227.939 88.4172 220.99 91.3484 214.4 95.06C212.543 96.1048 214.188 99.1166 216.044 98.072L216.044 98.072Z" fill="#3F3D56"/>
<path d="M313.558 120.079C313.575 119.78 313.507 119.482 313.364 119.224C313.221 118.966 313.009 118.761 312.755 118.634C293.864 108.041 272.445 103.745 251.255 106.298C251.123 106.31 251 106.332 250.857 106.344H250.851C250.721 106.356 250.591 106.377 250.463 106.406C237.86 107.959 225.633 111.995 214.4 118.309C214.155 118.465 213.953 118.687 213.812 118.952C213.671 119.218 213.597 119.518 213.598 119.823V163.205C213.602 163.472 213.662 163.734 213.775 163.972C213.888 164.21 214.05 164.418 214.248 164.579C214.447 164.74 214.678 164.851 214.922 164.903C215.167 164.955 215.419 164.946 215.66 164.878C216.16 164.725 216.66 164.577 217.17 164.434C228.526 161.143 240.184 159.19 251.936 158.611C252.186 158.6 252.436 158.588 252.696 158.577C262.268 158.137 271.857 158.506 281.375 159.681C281.575 159.693 281.773 159.716 281.971 159.749C282.46 159.806 282.959 159.869 283.448 159.937C283.645 159.96 283.831 159.983 284.012 160.017C285.915 160.273 287.802 160.563 289.694 160.877C292.427 161.343 295.159 161.863 297.892 162.436C298.062 162.47 298.237 162.516 298.413 162.55C302.798 163.484 307.162 164.565 311.506 165.761C311.747 165.827 312 165.835 312.245 165.782C312.49 165.728 312.72 165.617 312.919 165.454C313.117 165.292 313.279 165.084 313.392 164.845C313.504 164.606 313.564 164.343 313.568 164.076V120.148C313.57 120.124 313.566 120.101 313.558 120.079Z" fill="#3F3D56"/>
<path d="M253.809 108.664C252.616 108.038 251.248 107.909 249.971 108.303C249.407 108.529 248.89 108.873 248.451 109.315C248.013 109.757 247.66 110.288 247.414 110.877C246.972 112.007 246.688 113.2 246.573 114.419C246.505 114.898 246.501 115.503 246.951 115.727C247.114 115.79 247.291 115.805 247.461 115.768C247.632 115.732 247.79 115.647 247.918 115.522C248.15 115.276 248.342 114.99 248.484 114.676C249.265 113.374 250.34 112.305 251.61 111.566C252.879 110.827 254.302 110.442 255.747 110.447L256.95 110.961C256.003 110.048 254.947 109.276 253.809 108.664Z" fill="#FF6582"/>
<path d="M266.825 118.662C265.892 117.191 264.786 115.62 263.054 115.14C261.048 114.584 258.988 115.689 257.24 116.779C252.043 120.02 247.011 123.555 242.164 127.367L242.169 127.424L253.419 126.685C256.129 126.507 258.931 126.304 261.326 125.083C262.186 124.505 263.147 124.122 264.15 123.957C264.772 123.993 265.381 124.16 265.943 124.45C266.504 124.74 267.007 125.145 267.421 125.644C272.606 130.907 274.106 138.954 279.923 143.578C276.221 134.892 271.84 126.557 266.825 118.662Z" fill="white"/>
<path d="M252.698 158.576C252.437 158.588 252.187 158.599 251.938 158.611C250.124 157.913 248.268 157.297 246.389 156.762C245.173 156.413 243.935 156.099 242.697 155.832C241.296 155.507 239.885 155.251 238.473 155.03C235.786 154.611 233.077 154.367 230.362 154.297C230.342 154.3 230.321 154.297 230.301 154.291C230.281 154.284 230.263 154.273 230.248 154.258C230.232 154.243 230.22 154.225 230.212 154.205C230.203 154.184 230.199 154.162 230.199 154.14C230.199 154.118 230.203 154.096 230.212 154.076C230.22 154.056 230.232 154.038 230.248 154.023C230.263 154.008 230.281 153.997 230.301 153.99C230.321 153.983 230.342 153.981 230.362 153.983C230.709 153.983 231.057 153.995 231.394 154.018C234.114 154.126 236.827 154.409 239.516 154.867C240.916 155.111 242.317 155.402 243.707 155.727C244.967 156.03 246.226 156.367 247.464 156.739C249.234 157.274 250.978 157.886 252.698 158.576Z" fill="white"/>
<path d="M284.014 160.018C283.829 159.983 283.644 159.96 283.449 159.937C282.7 159.274 281.94 158.646 281.147 158.03C280.159 157.262 279.138 156.541 278.096 155.867C275.787 154.366 273.377 153.053 270.886 151.937C266.947 150.18 262.87 148.803 258.702 147.821C253.949 146.706 249.138 145.898 244.294 145.402C239.451 144.867 234.586 144.542 229.721 144.216C229.515 144.205 229.504 143.879 229.721 143.891C230.33 143.937 230.938 143.972 231.556 144.019C236.475 144.344 241.394 144.716 246.281 145.309C251.125 145.865 255.931 146.759 260.668 147.983C264.711 149.051 268.658 150.502 272.46 152.321C274.647 153.373 276.766 154.581 278.801 155.937C280.094 156.809 281.342 157.739 282.537 158.727C283.036 159.146 283.536 159.564 284.014 160.018Z" fill="white"/>
<path d="M281.972 159.75C281.774 159.716 281.575 159.693 281.375 159.681C281.147 159.483 280.908 159.297 280.669 159.111C278.998 157.83 277.253 156.661 275.446 155.611C273.805 154.656 272.12 153.791 270.397 153.018C266.46 151.257 262.382 149.879 258.214 148.902C253.461 147.787 248.649 146.979 243.805 146.484C238.962 145.949 234.097 145.623 229.233 145.298C229.027 145.274 229.027 144.96 229.233 144.972C229.852 145.019 230.46 145.053 231.068 145.1C235.987 145.425 240.906 145.798 245.792 146.391C250.637 146.947 255.443 147.84 260.179 149.065C264.223 150.13 268.17 151.581 271.971 153.402C273.405 154.1 274.806 154.855 276.174 155.681C278.203 156.874 280.141 158.234 281.972 159.75Z" fill="white"/>
<path d="M298.412 162.553C298.238 162.518 298.064 162.471 297.891 162.436C297.695 162.215 297.511 161.983 297.326 161.75C296.392 160.599 295.469 159.436 294.557 158.262C290.963 153.681 287.553 148.96 284.339 144.147C281.581 140.03 278.964 135.833 276.489 131.554C275.305 129.531 274.165 127.484 273.047 125.415C272.178 123.81 271.331 122.202 270.506 120.589C270.267 120.124 270.039 119.659 269.811 119.194C269.279 118.101 268.746 116.996 268.182 115.915C267.568 114.59 266.667 113.442 265.554 112.566C264.998 112.167 264.354 111.931 263.686 111.88C262.745 111.884 261.819 112.14 260.994 112.624C254.919 115.654 249.188 119.419 243.913 123.845C238.762 128.135 234.104 133.065 230.036 138.53C229.906 138.693 229.624 138.542 229.743 138.368C230.232 137.716 230.731 137.065 231.231 136.426C235.14 131.474 239.542 126.995 244.358 123.066C244.369 123.054 244.391 123.043 244.402 123.031C244.825 122.671 245.249 122.322 245.683 121.985C248.372 119.864 251.171 117.908 254.066 116.124C255.543 115.206 257.052 114.334 258.594 113.508C258.974 113.299 259.365 113.09 259.756 112.892C260.147 112.683 260.538 112.485 260.928 112.287C261.702 111.865 262.548 111.616 263.415 111.555C266.434 111.508 267.986 114.764 269.061 116.961C269.398 117.648 269.746 118.334 270.082 119.02C271.385 121.612 272.743 124.194 274.154 126.74C275.012 128.322 275.902 129.891 276.804 131.449C278.096 133.67 279.42 135.868 280.799 138.054C280.799 138.055 280.8 138.057 280.8 138.058C280.801 138.06 280.801 138.061 280.802 138.062C280.803 138.063 280.805 138.064 280.806 138.065C280.807 138.065 280.808 138.065 280.81 138.065H280.81C282.406 140.647 284.068 143.181 285.784 145.705C288.726 150.018 291.81 154.235 295.035 158.355C296.143 159.774 297.268 161.173 298.412 162.553Z" fill="white"/>
<path d="M259.672 111.2L259.372 111.341C258.684 110.097 257.72 109.054 256.565 108.305C255.409 107.557 254.1 107.125 252.751 107.049C248.306 106.711 244.401 109.883 244.046 114.12C243.902 115.865 244.373 117.604 245.368 118.995L245.089 119.171C244.053 117.723 243.562 115.912 243.712 114.095C244.081 109.682 248.148 106.379 252.778 106.731C254.182 106.81 255.546 107.26 256.749 108.039C257.952 108.819 258.956 109.905 259.672 111.2Z" fill="#FF6582"/>
<path d="M237.706 119.773C236.539 119.229 235.268 118.991 233.999 119.078C232.729 119.164 231.497 119.573 230.404 120.271C234.394 120.926 238.349 121.806 242.253 122.907C240.636 122.004 239.372 120.589 237.706 119.773Z" fill="white"/>
<path d="M230.381 120.267L229.942 120.607C230.091 120.488 230.245 120.376 230.404 120.271L230.381 120.267Z" fill="white"/>
<path d="M243.612 122.241C243.437 122.055 243.263 121.869 243.087 121.683C241.735 120.108 240.108 118.832 238.297 117.929C237.375 117.513 236.386 117.295 235.385 117.286C234.352 117.312 233.33 117.524 232.362 117.914C231.907 118.088 231.462 118.284 231.023 118.494C230.522 118.734 230.03 118.99 229.541 119.249C228.621 119.734 227.714 120.24 226.819 120.767C225.037 121.817 223.311 122.946 221.641 124.156C220.776 124.783 219.928 125.431 219.098 126.1C218.326 126.721 217.569 127.358 216.829 128.013C216.67 128.152 216.434 127.926 216.592 127.787C216.787 127.614 216.985 127.441 217.182 127.271C217.74 126.791 218.307 126.319 218.883 125.857C219.932 125.013 221.009 124.201 222.113 123.422C223.83 122.21 225.606 121.08 227.441 120.032C228.358 119.509 229.288 119.008 230.23 118.529C230.515 118.384 230.802 118.243 231.094 118.109C231.759 117.79 232.445 117.523 233.146 117.312C234.153 117.004 235.205 116.905 236.246 117.022C237.243 117.158 238.211 117.477 239.107 117.965C240.882 119.031 242.484 120.398 243.849 122.014C243.992 122.167 243.756 122.394 243.612 122.241Z" fill="white"/>
<path d="M81.3619 78.7997C105.838 70.4377 133.144 72.6515 156.331 84.4318C162.947 87.7756 169.195 91.8966 174.961 96.7189C176.592 98.0896 178.913 95.6378 177.264 94.2524C155.967 76.5637 129.208 68.1608 102.362 70.7319C94.9354 71.4435 87.6032 73.0209 80.4959 75.4361C78.5062 76.1158 79.3566 79.4848 81.3618 78.7997L81.3619 78.7997Z" fill="#3F3D56"/>
<path d="M81.3619 102.055C105.838 93.6925 133.144 95.9063 156.331 107.687C162.947 111.03 169.195 115.151 174.961 119.974C176.592 121.344 178.913 118.893 177.264 117.507C155.967 99.8185 129.208 91.4156 102.362 93.9867C94.9354 94.6984 87.6032 96.2758 80.4959 98.6909C78.5062 99.3706 79.3566 102.74 81.3618 102.055L81.3619 102.055Z" fill="#3F3D56"/>
<path d="M81.3619 125.309C105.838 116.947 133.144 119.161 156.331 130.942C162.947 134.285 169.195 138.406 174.961 143.229C176.592 144.599 178.913 142.147 177.264 140.762C155.967 123.073 129.208 114.67 102.362 117.242C94.9354 117.953 87.6032 119.531 80.4959 121.946C78.5062 122.625 79.3566 125.994 81.3618 125.309L81.3619 125.309Z" fill="#3F3D56"/>
<path d="M81.3619 148.564C105.838 140.202 133.144 142.416 156.331 154.196C162.947 157.54 169.195 161.661 174.961 166.483C176.592 167.854 178.913 165.402 177.264 164.017C155.967 146.328 129.208 137.925 102.362 140.496C94.9354 141.208 87.6032 142.786 80.4959 145.201C78.5062 145.88 79.3566 149.249 81.3618 148.564L81.3619 148.564Z" fill="#3F3D56"/>
<path d="M81.3619 171.819C105.838 163.457 133.144 165.671 156.331 177.451C162.947 180.795 169.195 184.916 174.961 189.738C176.592 191.109 178.913 188.657 177.264 187.272C155.967 169.583 129.208 161.18 102.362 163.751C94.9354 164.463 87.6032 166.04 80.4959 168.456C78.5062 169.135 79.3566 172.504 81.3618 171.819H81.3619Z" fill="#3F3D56"/>
<path d="M177.374 24.7964V80.5607C177.374 81.6689 175.565 82.5965 173.127 82.851C173.106 82.8496 173.085 82.8524 173.066 82.8592C172.659 82.892 172.23 82.9167 171.793 82.9167C170.449 82.9431 169.111 82.7095 167.845 82.2271C167.73 82.1779 167.615 82.1204 167.5 82.0711C167.393 82.0055 167.278 81.948 167.17 81.8823C166.565 81.4965 166.212 81.045 166.212 80.5607V19.9858C170.049 21.26 173.782 22.8689 177.374 24.7964Z" fill="#4A80F0"/>
<path d="M192.941 40.4775H191.346V239.33H192.941V40.4775Z" fill="#E6E6E6"/>
<path d="M366.366 176.606C367.497 176.495 368.591 176.12 369.572 175.507C370.553 174.895 371.397 174.059 372.043 173.06C372.69 172.06 373.124 170.921 373.315 169.722C373.507 168.524 373.45 167.295 373.149 166.122L406.25 149.576L426.178 115.058L410.514 108.286L397.071 136.102L363.045 160.382C361.238 161.053 359.725 162.41 358.791 164.196C357.856 165.983 357.566 168.074 357.976 170.073C358.385 172.073 359.466 173.843 361.012 175.047C362.558 176.251 364.463 176.805 366.366 176.606V176.606Z" fill="#FFB6B6"/>
<path d="M438.47 81.9901C438.47 81.9901 442.371 83.3536 438.09 91.4562C434.662 97.9429 417.964 135.307 411.149 142.644C411.866 143.874 412.181 145.325 412.043 146.768C411.905 148.211 411.323 149.563 410.388 150.613L394.655 137.244C394.355 132.381 397.36 131.899 399.14 132.063L402.76 118.326L415.384 84.4403L435.667 80.9509L438.47 81.9901Z" fill="#4A80F0"/>
<path d="M438.81 18.4772C439.554 15.2566 444.951 12.8786 435.707 8.3822C433.463 7.29098 433.556 3.53303 431.658 1.85008C429.761 0.167139 426.981 -0.613095 424.776 0.563217C422.806 1.61366 421.696 3.99085 421.46 6.33347C421.346 8.69126 421.6 11.0528 422.212 13.3211L422.033 13.6015C425.694 16.602 429.356 19.6024 433.018 22.6028C434.364 23.7054 436.123 24.8599 437.631 24.0326C439.338 23.0961 438.35 20.4711 438.81 18.4772Z" fill="#2F2E41"/>
</g>
<defs>
<clipPath id="clip0_1_13">
<rect width="513" height="420" fill="white"/>
</clipPath>
</defs>
</svg>
