<svg width="436" height="343" viewBox="0 0 436 343" fill="none" xmlns="http://www.w3.org/2000/svg">
<g clip-path="url(#clip0_1_265)">
<path d="M138.52 75.9427H116.104C115.552 75.9427 115.104 76.3905 115.104 76.9428V135.029C115.104 135.582 115.552 136.029 116.104 136.029H138.52C139.072 136.029 139.52 135.582 139.52 135.029V76.9427C139.52 76.3905 139.072 75.9427 138.52 75.9427Z" fill="#E3E5D7"/>
<path d="M42.6 145.209H19.312C18.7597 145.209 18.312 145.657 18.312 146.209V204.296C18.312 204.848 18.7597 205.296 19.312 205.296H42.6C43.1523 205.296 43.6 204.848 43.6 204.296V146.209C43.6 145.657 43.1523 145.209 42.6 145.209Z" fill="#586875"/>
<path d="M80.096 146.044H57.68C57.1277 146.044 56.68 146.491 56.68 147.044V205.13C56.68 205.683 57.1277 206.13 57.68 206.13H80.096C80.6483 206.13 81.096 205.683 81.096 205.13V147.044C81.096 146.491 80.6483 146.044 80.096 146.044Z" fill="#E3E5D7"/>
<path d="M104.718 140.862L83.8005 148.547C83.2821 148.737 83.0285 149.307 83.2341 149.82L104.989 204.059C105.195 204.572 105.782 204.833 106.3 204.642L127.217 196.958C127.736 196.768 127.989 196.198 127.784 195.685L106.028 141.446C105.823 140.933 105.236 140.672 104.718 140.862Z" fill="#333333"/>
<path d="M176.016 75.9427H153.6C153.048 75.9427 152.6 76.3905 152.6 76.9428V135.029C152.6 135.582 153.048 136.029 153.6 136.029H176.016C176.568 136.029 177.016 135.582 177.016 135.029V76.9427C177.016 76.3905 176.568 75.9427 176.016 75.9427Z" fill="#586875"/>
<path d="M24.2054 72.419L3.15052 79.7531C2.62898 79.9348 2.36533 80.5005 2.56165 81.0167L23.3241 135.61C23.5204 136.126 24.1024 136.398 24.6239 136.216L45.6788 128.882C46.2003 128.7 46.464 128.134 46.2676 127.618L25.5052 73.0247C25.3089 72.5085 24.7269 72.2373 24.2054 72.419Z" fill="#333333"/>
<path d="M158.654 260.18C157.334 257.089 157.189 253.639 158.245 250.453C159.302 247.267 161.489 244.555 164.413 242.807C165.387 242.229 164.497 240.73 163.518 241.312C160.164 243.268 157.661 246.358 156.483 249.996C155.304 253.635 155.532 257.569 157.123 261.054C157.571 262.076 159.099 261.195 158.654 260.18H158.654Z" fill="#3F3D56"/>
<path d="M159.162 262.51C156.77 258.37 157.333 253.417 158.193 248.94C159.091 244.268 160.268 239.523 159.25 234.771C158.788 232.463 157.694 230.321 156.086 228.572C155.311 227.751 154.06 228.978 154.832 229.797C157.84 232.989 158.188 237.619 157.701 241.731C157.125 246.58 155.494 251.306 155.697 256.234C155.75 258.734 156.413 261.185 157.63 263.384C157.753 263.574 157.947 263.71 158.17 263.763C158.394 263.817 158.63 263.783 158.828 263.67C159.027 263.556 159.173 263.372 159.235 263.155C159.297 262.939 159.271 262.707 159.162 262.51L159.162 262.51Z" fill="#3F3D56"/>
<path d="M171.997 275.728H141.853C141.148 275.727 140.472 275.453 139.973 274.966C139.474 274.479 139.194 273.819 139.193 273.13V264.479C139.196 262.256 140.101 260.125 141.71 258.554C143.318 256.982 145.5 256.098 147.775 256.095H152.196C152.431 256.095 152.657 256.004 152.823 255.841C152.989 255.679 153.083 255.459 153.083 255.229V251.187C153.083 250.804 153.239 250.437 153.516 250.167C153.793 249.896 154.169 249.744 154.561 249.743H159.289C159.681 249.744 160.056 249.896 160.333 250.167C160.61 250.437 160.766 250.804 160.767 251.187V255.229C160.767 255.459 160.86 255.679 161.027 255.841C161.193 256.004 161.418 256.095 161.653 256.095H166.074C168.35 256.098 170.531 256.982 172.14 258.554C173.749 260.125 174.654 262.256 174.656 264.479V273.13C174.656 273.819 174.375 274.479 173.876 274.966C173.378 275.453 172.702 275.727 171.997 275.728Z" fill="#F2C94C"/>
<path d="M157.388 223.781C158.023 227.072 157.237 229.979 155.633 230.274C154.029 230.569 152.214 228.141 151.58 224.85C150.945 221.56 152.897 216.088 152.897 216.088C152.897 216.088 156.753 220.491 157.388 223.781Z" fill="#219653"/>
<path d="M169.56 239.091C167.55 241.803 164.849 243.244 163.527 242.309C162.205 241.374 162.762 238.417 164.772 235.705C166.782 232.992 172.192 230.615 172.192 230.615C172.192 230.615 171.57 236.378 169.56 239.091Z" fill="#219653"/>
<path d="M103.095 52.301C101.775 49.2103 101.63 45.7604 102.686 42.5744C103.742 39.3884 105.93 36.6765 108.854 34.9286C109.828 34.3502 108.938 32.8515 107.959 33.4328C104.605 35.3892 102.102 38.4791 100.924 42.1175C99.7452 45.7558 99.973 49.6901 101.564 53.1753C102.012 54.1973 103.539 53.3157 103.095 52.301H103.095Z" fill="#3F3D56"/>
<path d="M103.603 54.6309C101.211 50.4915 101.774 45.5379 102.634 41.0616C103.532 36.3888 104.709 31.6443 103.691 26.8918C103.229 24.5844 102.135 22.4424 100.527 20.6937C99.7521 19.8718 98.5006 21.0992 99.2729 21.9187C102.281 25.1102 102.629 29.74 102.141 33.8517C101.566 38.7015 99.9353 43.4272 100.138 48.3553C100.191 50.855 100.854 53.3062 102.071 55.5052C102.194 55.6953 102.388 55.8313 102.611 55.8846C102.835 55.9379 103.071 55.9042 103.269 55.7908C103.468 55.6774 103.614 55.493 103.676 55.2766C103.738 55.0602 103.712 54.8287 103.603 54.6309L103.603 54.6309Z" fill="#3F3D56"/>
<path d="M116.438 67.8493H86.2938C85.5887 67.8486 84.9126 67.5745 84.414 67.0874C83.9154 66.6002 83.6349 65.9398 83.6341 65.2508V56.6005C83.6367 54.3776 84.5417 52.2466 86.1506 50.6748C87.7594 49.103 89.9407 48.2189 92.216 48.2163H96.6373C96.8723 48.2161 97.0977 48.1247 97.2639 47.9624C97.4301 47.8 97.5236 47.5798 97.5239 47.3502V43.3081C97.5243 42.9253 97.6801 42.5584 97.9571 42.2878C98.2341 42.0171 98.6097 41.8649 99.0015 41.8645H103.73C104.122 41.8649 104.497 42.0171 104.774 42.2878C105.051 42.5584 105.207 42.9253 105.208 43.3081V47.3502C105.208 47.5798 105.301 47.8 105.468 47.9624C105.634 48.1247 105.859 48.2161 106.094 48.2163H110.515C112.791 48.2189 114.972 49.103 116.581 50.6748C118.19 52.2466 119.095 54.3776 119.097 56.6005V65.2508C119.097 65.9398 118.816 66.6002 118.317 67.0874C117.819 67.5745 117.143 67.8486 116.438 67.8493Z" fill="#4A80F0"/>
<path d="M101.829 15.9025C102.464 19.1932 101.678 22.1001 100.074 22.3954C98.4701 22.6906 96.6553 20.2624 96.0207 16.9717C95.386 13.681 97.3379 8.20898 97.3379 8.20898C97.3379 8.20898 101.194 12.6118 101.829 15.9025Z" fill="#219653"/>
<path d="M114.001 31.2119C111.991 33.9243 109.29 35.3652 107.968 34.4302C106.646 33.4952 107.203 30.5383 109.213 27.8259C111.223 25.1134 116.632 22.7365 116.632 22.7365C116.632 22.7365 116.011 28.4994 114.001 31.2119Z" fill="#219653"/>
<path d="M43.1469 157.064H18.9137V165.726H43.1469V157.064Z" fill="#3F3D56"/>
<path d="M43.1469 185.359H18.9137V194.02H43.1469V185.359Z" fill="#3F3D56"/>
<path d="M190.91 417.268H10.0479C7.38396 417.264 4.82997 416.003 2.94627 413.76C1.06257 411.518 0.00298644 408.477 0 405.306V11.9621C0.00298644 8.79068 1.06257 5.75013 2.94627 3.50756C4.82997 1.265 7.38396 0.00355539 10.0479 0H190.91C193.574 0.00357025 196.128 1.26501 198.012 3.50757C199.896 5.75014 200.955 8.79068 200.958 11.9621V405.306C200.955 408.477 199.896 411.518 198.012 413.76C196.128 416.003 193.574 417.264 190.91 417.268ZM10.0479 1.40731C7.69737 1.41048 5.44387 2.52351 3.78178 4.50224C2.1197 6.48097 1.18477 9.1638 1.18211 11.9621V405.306C1.18477 408.104 2.1197 410.787 3.78178 412.766C5.44387 414.744 7.69737 415.857 10.0479 415.861H190.91C193.261 415.857 195.514 414.744 197.176 412.766C198.839 410.787 199.773 408.104 199.776 405.306V11.9621C199.773 9.1638 198.839 6.48097 197.176 4.50224C195.514 2.52351 193.261 1.41048 190.91 1.40731H10.0479Z" fill="#C1BFD7"/>
<path d="M190.91 417.268H10.0479C7.38396 417.264 4.82997 416.003 2.94627 413.76C1.06257 411.518 0.00298644 408.477 0 405.306V11.9621C0.00298644 8.79068 1.06257 5.75013 2.94627 3.50756C4.82997 1.265 7.38396 0.00355539 10.0479 0H190.91C193.574 0.00357025 196.128 1.26501 198.012 3.50757C199.896 5.75014 200.955 8.79068 200.958 11.9621V405.306C200.955 408.477 199.896 411.518 198.012 413.76C196.128 416.003 193.574 417.264 190.91 417.268ZM10.0479 1.40731C7.69737 1.41048 5.44387 2.52351 3.78178 4.50224C2.1197 6.48097 1.18477 9.1638 1.18211 11.9621V405.306C1.18477 408.104 2.1197 410.787 3.78178 412.766C5.44387 414.744 7.69737 415.857 10.0479 415.861H190.91C193.261 415.857 195.514 414.744 197.176 412.766C198.839 410.787 199.773 408.104 199.776 405.306V11.9621C199.773 9.1638 198.839 6.48097 197.176 4.50224C195.514 2.52351 193.261 1.41048 190.91 1.40731H10.0479Z" fill="#C1BFD7"/>
<path d="M200.367 66.6671H0.591064V70.8398H200.367V66.6671Z" fill="#C1BFD7"/>
<path d="M200.367 135.978H0.591064V140.151H200.367V135.978Z" fill="#C1BFD7"/>
<path d="M200.367 205.289H0.591064V209.462H200.367V205.289Z" fill="#C1BFD7"/>
<path d="M200.367 274.601H0.591064V278.773H200.367V274.601Z" fill="#C1BFD7"/>
<path d="M41.3737 206.724H21.2779C20.4944 206.723 19.7432 206.419 19.1892 205.877C18.6352 205.336 18.3235 204.602 18.3226 203.837V147.825C18.3235 147.059 18.6352 146.326 19.1892 145.784C19.7432 145.243 20.4944 144.939 21.2779 144.938H41.3737C42.1572 144.939 42.9084 145.243 43.4624 145.784C44.0164 146.326 44.3281 147.059 44.329 147.825V203.837C44.3281 204.602 44.0164 205.336 43.4624 205.877C42.9084 206.419 42.1572 206.723 41.3737 206.724ZM21.2779 146.093C20.8078 146.093 20.3571 146.276 20.0247 146.601C19.6923 146.925 19.5053 147.366 19.5047 147.825V203.837C19.5053 204.296 19.6923 204.736 20.0247 205.061C20.3571 205.386 20.8078 205.569 21.2779 205.569H41.3737C41.8438 205.569 42.2945 205.386 42.627 205.061C42.9594 204.736 43.1464 204.296 43.1469 203.837V147.825C43.1464 147.366 42.9594 146.925 42.627 146.601C42.2945 146.276 41.8438 146.093 41.3737 146.093H21.2779Z" fill="#586875"/>
<path d="M80.3833 157.064H56.1501V165.726H80.3833V157.064Z" fill="#F2994A"/>
<path d="M80.3833 185.359H56.1501V194.02H80.3833V185.359Z" fill="#F2994A"/>
<path d="M78.6101 206.724H58.5143C57.7308 206.723 56.9796 206.419 56.4256 205.877C55.8716 205.336 55.5599 204.602 55.559 203.837V147.825C55.5599 147.059 55.8716 146.326 56.4256 145.784C56.9796 145.243 57.7308 144.939 58.5143 144.938H78.6101C79.3936 144.939 80.1448 145.243 80.6988 145.784C81.2528 146.326 81.5645 147.059 81.5654 147.825V203.837C81.5645 204.602 81.2528 205.336 80.6988 205.877C80.1448 206.419 79.3936 206.723 78.6101 206.724ZM58.5143 146.093C58.0442 146.093 57.5935 146.276 57.2611 146.601C56.9286 146.925 56.7417 147.366 56.7411 147.825V203.837C56.7417 204.296 56.9286 204.736 57.2611 205.061C57.5935 205.386 58.0442 205.569 58.5143 205.569H78.6101C79.0802 205.569 79.5309 205.386 79.8633 205.061C80.1958 204.736 80.3827 204.296 80.3833 203.837V147.825C80.3827 147.366 80.1958 146.925 79.8633 146.601C79.5309 146.276 79.0802 146.093 78.6101 146.093H58.5143Z" fill="#3F3D56"/>
<path d="M139.489 87.1936H115.255V95.8552H139.489V87.1936Z" fill="#4A80F0"/>
<path d="M139.485 115.488H115.252V124.15H139.485V115.488Z" fill="#4A80F0"/>
<path d="M137.716 136.854H117.62C116.836 136.853 116.085 136.548 115.531 136.007C114.977 135.466 114.665 134.732 114.664 133.966V77.9545C114.665 77.1891 114.977 76.4552 115.531 75.9139C116.085 75.3727 116.836 75.0682 117.62 75.0673H137.716C138.499 75.0682 139.25 75.3727 139.804 75.9139C140.358 76.4552 140.67 77.1891 140.671 77.9545V133.966C140.67 134.732 140.358 135.466 139.804 136.007C139.25 136.548 138.499 136.853 137.716 136.854ZM117.62 76.2222C117.15 76.2227 116.699 76.4054 116.366 76.7302C116.034 77.0549 115.847 77.4952 115.847 77.9545V133.966C115.847 134.426 116.034 134.866 116.366 135.191C116.699 135.515 117.15 135.698 117.62 135.699H137.716C138.186 135.698 138.636 135.515 138.969 135.191C139.301 134.866 139.488 134.426 139.489 133.966V77.9545C139.488 77.4952 139.301 77.0549 138.969 76.7301C138.636 76.4054 138.186 76.2227 137.716 76.2222H117.62Z" fill="#D9D9D9"/>
<path d="M176.725 87.1936H152.492V95.8552H176.725V87.1936Z" fill="#3F3D56"/>
<path d="M176.725 115.488H152.492V124.15H176.725V115.488Z" fill="#3F3D56"/>
<path d="M174.952 136.854H154.856C154.073 136.853 153.321 136.548 152.767 136.007C152.213 135.466 151.902 134.732 151.901 133.966V77.9545C151.902 77.1891 152.213 76.4552 152.767 75.9139C153.321 75.3727 154.073 75.0682 154.856 75.0673H174.952C175.735 75.0682 176.487 75.3727 177.041 75.9139C177.595 76.4552 177.906 77.1891 177.907 77.9545V133.966C177.906 134.732 177.595 135.466 177.041 136.007C176.487 136.548 175.735 136.853 174.952 136.854ZM154.856 76.2222C154.386 76.2227 153.935 76.4054 153.603 76.7301C153.27 77.0549 153.083 77.4952 153.083 77.9545V133.966C153.083 134.426 153.27 134.866 153.603 135.191C153.935 135.515 154.386 135.698 154.856 135.699H174.952C175.422 135.698 175.873 135.515 176.205 135.191C176.538 134.866 176.724 134.426 176.725 133.966V77.9545C176.724 77.4952 176.538 77.0549 176.205 76.7301C175.873 76.4054 175.422 76.2227 174.952 76.2222H154.856Z" fill="#3F3D56"/>
<path d="M110.107 151.891L87.4228 160.219L90.5414 168.327L113.226 159.999L110.107 151.891Z" fill="#828282"/>
<path d="M120.295 178.378L97.6102 186.705L100.729 194.813L123.413 186.486L120.295 178.378Z" fill="#828282"/>
<path d="M106.475 206.079C105.874 206.078 105.287 205.898 104.793 205.563C104.3 205.229 103.922 204.755 103.71 204.205L83.543 151.773C83.2683 151.057 83.2958 150.263 83.6195 149.566C83.9432 148.869 84.5367 148.325 85.2697 148.055L104.081 141.149C104.445 141.016 104.831 140.954 105.219 140.966C105.607 140.979 105.989 141.066 106.342 141.223C106.696 141.379 107.014 141.603 107.279 141.879C107.544 142.156 107.751 142.482 107.887 142.837L128.054 195.269C128.329 195.985 128.301 196.779 127.978 197.477C127.654 198.174 127.061 198.717 126.327 198.987H126.327L107.516 205.893C107.183 206.015 106.83 206.079 106.475 206.079ZM105.122 142.119C104.909 142.119 104.697 142.157 104.497 142.23L85.6857 149.136C85.2458 149.298 84.8897 149.624 84.6955 150.043C84.5012 150.461 84.4847 150.937 84.6495 151.367L104.816 203.799C104.898 204.012 105.022 204.208 105.181 204.374C105.341 204.54 105.532 204.674 105.744 204.768C105.956 204.862 106.185 204.914 106.417 204.921C106.65 204.929 106.882 204.892 107.1 204.812L125.912 197.906C126.351 197.744 126.708 197.418 126.902 197C127.096 196.581 127.113 196.105 126.948 195.675L106.781 143.243C106.654 142.913 106.427 142.629 106.131 142.428C105.834 142.227 105.483 142.119 105.122 142.119Z" fill="#3F3D56"/>
<path d="M28.5419 83.1757L5.85736 91.5035L8.97595 99.6116L31.6605 91.2838L28.5419 83.1757Z" fill="#F2994A"/>
<path d="M38.7292 109.662L16.0447 117.99L19.1633 126.098L41.8478 117.77L38.7292 109.662Z" fill="#F2994A"/>
<path d="M24.9093 137.363C24.3083 137.362 23.7219 137.182 23.228 136.848C22.7341 136.513 22.3562 136.04 22.1444 135.49L1.97754 83.0579C1.70286 82.3411 1.73041 81.5471 2.05411 80.8501C2.37782 80.1531 2.97127 79.6099 3.7043 79.3398L22.516 72.4339C22.8793 72.3005 23.2659 72.2383 23.6538 72.2509C24.0417 72.2634 24.4233 72.3506 24.7767 72.5072C25.1301 72.6639 25.4485 72.8871 25.7136 73.164C25.9788 73.4409 26.1855 73.7661 26.3219 74.1211L46.4888 126.553C46.7635 127.27 46.736 128.064 46.4122 128.761C46.0885 129.458 45.4951 130.001 44.762 130.271H44.762L25.9503 137.177C25.6176 137.3 25.265 137.363 24.9093 137.363ZM23.5566 73.4033C23.3431 73.4035 23.1315 73.4413 22.9318 73.5149L4.12025 80.4208C3.68038 80.5829 3.32428 80.9088 3.13003 81.3271C2.93579 81.7453 2.91927 82.2218 3.0841 82.6519L23.251 135.084C23.3329 135.297 23.4569 135.492 23.616 135.658C23.7751 135.824 23.9661 135.958 24.1782 136.052C24.3902 136.146 24.6192 136.198 24.8519 136.206C25.0846 136.214 25.3166 136.176 25.5345 136.096L44.3461 129.19C44.786 129.028 45.1421 128.702 45.3363 128.284C45.5306 127.866 45.5471 127.389 45.3823 126.959L25.2154 74.5271C25.0883 74.1975 24.8615 73.9134 24.5652 73.7127C24.2689 73.5119 23.9171 73.404 23.5566 73.4033Z" fill="#333333"/>
<path d="M370.591 144.36C380.71 144.36 388.913 136.346 388.913 126.46C388.913 116.573 380.71 108.559 370.591 108.559C360.471 108.559 352.268 116.573 352.268 126.46C352.268 136.346 360.471 144.36 370.591 144.36Z" fill="#2F2E41"/>
<path d="M289.191 208.151C290.056 208.478 290.985 208.617 291.911 208.556C292.837 208.495 293.739 208.236 294.551 207.798C295.364 207.36 296.069 206.753 296.616 206.021C297.162 205.288 297.538 204.447 297.716 203.557L348.096 172.503L338.926 162.417L292.266 196.134C290.716 195.941 289.147 196.31 287.857 197.171C286.566 198.033 285.644 199.327 285.265 200.808C284.886 202.289 285.076 203.855 285.8 205.208C286.523 206.561 287.73 207.608 289.191 208.151Z" fill="#FFB8B8"/>
<path d="M337.578 180.759C337.132 180.76 336.693 180.651 336.301 180.443C335.91 180.234 335.578 179.933 335.336 179.567L329.502 170.71C329.134 170.151 328.999 169.475 329.125 168.822C329.252 168.169 329.629 167.587 330.181 167.198L349.703 153.413C350.65 152.744 351.725 152.267 352.865 152.011C354.004 151.755 355.184 151.725 356.335 151.923C357.486 152.12 358.585 152.541 359.567 153.161C360.549 153.78 361.394 154.586 362.051 155.53C362.708 156.474 363.165 157.538 363.395 158.658C363.624 159.777 363.621 160.931 363.386 162.049C363.152 163.168 362.69 164.229 362.028 165.17C361.365 166.111 360.517 166.913 359.532 167.528L339.005 180.351C338.579 180.617 338.084 180.759 337.578 180.759Z" fill="#4A80F0"/>
<path d="M346.295 335.407L339.049 335.406L335.601 308.1L346.297 308.101L346.295 335.407Z" fill="#FFB8B8"/>
<path d="M333.873 333.383H347.848V341.98H325.074C325.074 340.851 325.302 339.733 325.744 338.69C326.186 337.647 326.834 336.699 327.651 335.901C328.468 335.103 329.438 334.47 330.506 334.038C331.573 333.606 332.717 333.383 333.873 333.383Z" fill="#A9232B"/>
<path d="M380.123 330.114L373.146 332.027L362.272 306.648L372.569 303.824L380.123 330.114Z" fill="#FFB8B8"/>
<path d="M367.604 331.446L381.059 327.756L383.437 336.033L361.51 342.046C361.198 340.959 361.108 339.823 361.245 338.702C361.382 337.581 361.744 336.498 362.31 335.513C362.876 334.529 363.635 333.663 364.543 332.966C365.451 332.268 366.491 331.752 367.604 331.446Z" fill="#A9232B"/>
<path d="M399.647 288.209L371.515 255.773L388.585 235.537C388.836 235.241 389.15 235.002 389.507 234.838C389.863 234.675 390.252 234.591 390.646 234.592C391.039 234.593 391.428 234.679 391.783 234.845C392.138 235.01 392.451 235.251 392.7 235.549L418.53 266.52L399.647 288.209Z" fill="#586875"/>
<path d="M372.65 256.015C373.065 255.285 373.579 254.614 374.179 254.021L390.472 237.883C391.111 237.247 391.971 236.87 392.881 236.826C394.743 236.74 397.796 236.924 398.647 238.919L376.65 256.503L372.65 256.015Z" fill="#F2F2F2"/>
<path d="M400.624 295.072C399.37 295.035 398.151 294.658 397.103 293.982L397.025 293.904L371.26 255.407L375.536 255.003L398.449 237.542C398.738 237.322 399.071 237.162 399.426 237.073C399.782 236.985 400.152 236.969 400.514 237.027C400.876 237.084 401.222 237.215 401.53 237.41C401.838 237.604 402.102 237.859 402.304 238.158L427.35 275.194C427.735 275.766 427.873 276.463 427.737 277.134C427.6 277.805 427.198 278.396 426.619 278.781L402.382 294.747C401.823 294.964 401.226 295.074 400.624 295.072Z" fill="#586875"/>
<path d="M391.512 268.737C391.27 268.738 391.031 268.68 390.817 268.569C390.603 268.458 390.42 268.297 390.284 268.101L387.324 263.805C387.106 263.488 387.025 263.098 387.101 262.722C387.176 262.347 387.4 262.016 387.725 261.801L402.91 251.814C403.235 251.601 403.634 251.522 404.018 251.596C404.402 251.669 404.741 251.888 404.961 252.205L407.921 256.501C408.139 256.818 408.219 257.208 408.144 257.584C408.069 257.959 407.845 258.291 407.52 258.505L392.335 268.492C392.092 268.652 391.805 268.738 391.512 268.737Z" fill="#3F3D56"/>
<path d="M334.455 331.277C333.647 331.274 332.869 330.976 332.274 330.441C331.679 329.907 331.311 329.174 331.24 328.387C329.951 314.076 323.482 241.944 322.772 227.378C321.983 211.192 335.771 185.588 335.91 185.331L336.005 185.155L342.82 185.987V186.761L349.307 187.506L361.859 188.694L365.453 231.608L367.042 260.712L381.972 320.156C382.141 320.814 382.038 321.511 381.686 322.096C381.334 322.681 380.76 323.107 380.089 323.282L367.095 326.744C366.42 326.921 365.7 326.832 365.091 326.497C364.482 326.161 364.032 325.605 363.837 324.949L351.604 282.965C351.545 282.762 351.411 282.587 351.229 282.473C351.047 282.359 350.829 282.314 350.615 282.346C350.401 282.379 350.207 282.486 350.069 282.649C349.931 282.811 349.858 283.017 349.865 283.229L351.159 324.167C351.165 324.587 351.084 325.004 350.92 325.393C350.755 325.781 350.511 326.133 350.203 326.426C347.225 329.158 339.355 330.617 334.929 331.244C334.772 331.266 334.614 331.277 334.455 331.277Z" fill="#040405"/>
<path d="M373.498 150.939C371.436 148.839 357.851 151.725 354.834 154.818L334.186 187.794L368.335 194.001L375.88 152.103L373.498 150.939Z" fill="#F6EDDC"/>
<path d="M364.547 234.718C363.811 234.718 363.081 234.599 362.385 234.366C360.401 233.701 357.97 233.005 355.158 232.299C342.844 229.206 338.497 219.301 342.236 202.861L342.331 202.444C345.842 186.849 352.461 172.082 361.81 158.984L363.258 156.952C365.006 154.5 367.453 152.604 370.295 151.5C373.137 150.395 376.249 150.132 379.243 150.741C384.784 151.857 387.759 153.475 388.085 155.55C388.726 159.621 376.351 208.83 371 229.798C370.641 231.205 369.811 232.453 368.641 233.345C367.472 234.237 366.03 234.72 364.547 234.718L364.547 234.718Z" fill="#4A80F0"/>
<path d="M322.127 228.401C321.805 228.4 321.485 228.352 321.178 228.256L317.187 227.009C316.774 226.88 316.394 226.668 316.069 226.387C315.745 226.106 315.485 225.762 315.305 225.377C315.124 224.992 315.028 224.575 315.023 224.152C315.017 223.729 315.102 223.309 315.271 222.919L336.45 174.354C340.507 165.09 347.602 157.406 356.618 152.512H356.619C356.749 152.441 356.893 152.398 357.042 152.384C357.191 152.371 357.34 152.387 357.482 152.433C357.613 152.473 357.733 152.54 357.835 152.629C357.937 152.717 358.02 152.826 358.076 152.947C360.567 158.301 347.01 183.635 336.117 203.991C330.539 214.414 325.722 223.416 325.174 225.983C325.028 226.667 324.645 227.28 324.09 227.721C323.535 228.161 322.841 228.401 322.127 228.401Z" fill="#4A80F0"/>
<path d="M387.648 239.467C388.392 238.924 389.005 238.229 389.444 237.43C389.883 236.631 390.138 235.748 390.19 234.842C390.241 233.937 390.09 233.031 389.744 232.19C389.399 231.348 388.87 230.59 388.192 229.97L388.024 171.773L374.406 174.005L378.86 230.538C377.869 231.718 377.356 233.213 377.417 234.739C377.479 236.264 378.111 237.715 379.194 238.816C380.278 239.916 381.736 240.59 383.294 240.71C384.852 240.83 386.401 240.388 387.648 239.467Z" fill="#FFB8B8"/>
<path d="M376.56 186.211C375.885 186.211 375.235 185.96 374.743 185.51C374.25 185.059 373.951 184.442 373.907 183.784L372.323 160.302C372.173 158.043 372.947 155.817 374.474 154.115C376.001 152.412 378.158 151.37 380.47 151.219C381.657 151.142 382.848 151.303 383.969 151.692C385.09 152.081 386.119 152.69 386.991 153.48C387.863 154.271 388.561 155.227 389.041 156.291C389.522 157.354 389.775 158.502 389.786 159.664L390.001 183.466C390.006 184.154 389.732 184.815 389.24 185.306C388.747 185.797 388.076 186.078 387.373 186.088L376.592 186.211L376.56 186.211Z" fill="#4A80F0"/>
<path d="M366.816 145.271C374.834 145.271 381.333 138.921 381.333 131.088C381.333 123.255 374.834 116.906 366.816 116.906C358.799 116.906 352.299 123.255 352.299 131.088C352.299 138.921 358.799 145.271 366.816 145.271Z" fill="#FFB8B8"/>
<path d="M378.886 141.012C379.969 137.646 380.963 133.677 378.821 130.836C377.277 128.79 374.505 127.997 371.905 127.884C369.305 127.77 366.698 128.201 364.103 127.999C361.509 127.798 358.767 126.798 357.45 124.605C355.741 121.762 357.188 117.847 359.935 115.932C362.683 114.018 366.312 113.75 369.655 114.196C373.886 114.687 377.864 116.425 381.058 119.18C384.166 121.982 386.192 126.021 386.101 130.152C386.011 134.283 383.64 138.397 379.861 140.251" fill="#2F2E41"/>
<path d="M375.267 110.022C371.792 108.976 370.189 104.488 371.743 101.276C373.297 98.0639 377.27 96.3821 380.877 96.8294C384.484 97.2768 387.663 99.5379 389.856 102.372C392.048 105.206 393.371 108.585 394.473 111.97C395.575 115.356 396.492 118.814 397.998 122.048C400.387 127.017 404.072 131.284 408.684 134.42C413.296 137.556 418.671 139.452 424.27 139.916C426.71 140.089 429.243 139.965 431.467 138.968C433.691 137.972 435.556 135.962 435.806 133.584C437.071 142.032 432.041 151.009 424.075 154.519C416.11 158.03 405.892 155.772 400.248 149.253C394.733 142.883 393.879 133.89 394.012 125.548C394.048 123.26 394.134 120.93 393.487 118.731C392.841 116.532 391.31 114.441 389.08 113.743C387.28 113.179 385.332 113.586 383.487 113.985C381.642 114.385 379.684 114.769 377.898 114.167C376.112 113.565 374.674 111.58 375.393 109.874" fill="#2F2E41"/>
<path d="M432.7 343H276.662C276.505 343 276.355 342.939 276.244 342.831C276.133 342.723 276.071 342.576 276.071 342.423C276.071 342.269 276.133 342.123 276.244 342.014C276.355 341.906 276.505 341.845 276.662 341.845H432.7C432.857 341.845 433.007 341.906 433.118 342.014C433.229 342.123 433.291 342.269 433.291 342.423C433.291 342.576 433.229 342.723 433.118 342.831C433.007 342.939 432.857 343 432.7 343Z" fill="#7E6A6A"/>
</g>
<defs>
<clipPath id="clip0_1_265">
<rect width="436" height="343" fill="white"/>
</clipPath>
</defs>
</svg>
