<svg width="24" height="23" viewBox="0 0 24 23" fill="none" xmlns="http://www.w3.org/2000/svg">
<path d="M3.93567 23H20.1974C22.0552 23 23.5665 21.4886 23.5665 19.6309V3.36914C23.5665 1.51138 22.0552 0 20.1974 0H3.93567C2.0779 0 0.566528 1.51138 0.566528 3.36914V19.6309C0.566528 21.4886 2.0779 23 3.93567 23ZM1.91418 3.36914C1.91418 2.25452 2.82104 1.34766 3.93567 1.34766H20.1974C21.312 1.34766 22.2189 2.25452 22.2189 3.36914V19.6309C22.2189 20.7455 21.312 21.6523 20.1974 21.6523H3.93567C2.82104 21.6523 1.91418 20.7455 1.91418 19.6309V3.36914Z" fill="white"/>
<path d="M12.0665 17.5645C15.4104 17.5645 18.131 14.8439 18.131 11.5C18.131 8.15613 15.4104 5.43555 12.0665 5.43555C8.72266 5.43555 6.00208 8.15613 6.00208 11.5C6.00208 14.8439 8.72266 17.5645 12.0665 17.5645ZM12.0665 6.7832C14.6674 6.7832 16.7833 8.89909 16.7833 11.5C16.7833 14.1009 14.6674 16.2168 12.0665 16.2168C9.46562 16.2168 7.34973 14.1009 7.34973 11.5C7.34973 8.89909 9.46562 6.7832 12.0665 6.7832Z" fill="white"/>
<path d="M18.8048 6.7832C19.9194 6.7832 20.8263 5.87634 20.8263 4.76172C20.8263 3.64709 19.9194 2.74023 18.8048 2.74023C17.6902 2.74023 16.7833 3.64709 16.7833 4.76172C16.7833 5.87634 17.6902 6.7832 18.8048 6.7832ZM18.8048 4.08789C19.1763 4.08789 19.4786 4.39024 19.4786 4.76172C19.4786 5.1332 19.1763 5.43555 18.8048 5.43555C18.4333 5.43555 18.131 5.1332 18.131 4.76172C18.131 4.39024 18.4333 4.08789 18.8048 4.08789Z" fill="white"/>
</svg>
