<svg width="24" height="23" viewBox="0 0 24 23" fill="none" xmlns="http://www.w3.org/2000/svg">
<path d="M5.79607 21.3588C7.57312 22.4281 9.60496 22.9918 11.6926 22.9918C18.0187 22.9918 23.2333 17.8296 23.2333 11.4958C23.2333 5.16935 18.0261 0 11.6926 0C5.37844 0 0.241554 5.15707 0.241554 11.4958C0.241554 13.6113 0.805359 15.6586 1.87453 17.4371L0.233307 23L5.79607 21.3588ZM1.58886 11.4958C1.58886 5.89986 6.12141 1.34713 11.6926 1.34713C17.3133 1.34713 21.8862 5.89986 21.8862 11.4958C21.8862 17.0919 17.3133 21.6444 11.6926 21.6444C9.7585 21.6444 7.87897 21.0966 6.25775 20.0599L5.99875 19.8944L2.22584 21.0076L3.33888 17.2346L3.17341 16.9757C2.1367 15.3542 1.58886 13.4594 1.58886 11.4958Z" fill="white"/>
<path d="M5.83188 9.37762C6.05438 10.5461 6.71487 12.7936 8.63791 14.7167C10.561 16.6397 12.8085 17.3004 13.9771 17.5229C15.3153 17.7777 17.2791 17.8161 18.2387 16.8564L18.7738 16.3214C19.0438 16.0513 19.1926 15.6921 19.1926 15.3101C19.1926 14.9281 19.0438 14.5691 18.7738 14.299L16.6342 12.1594C16.364 11.8892 16.0049 11.7406 15.6229 11.7406C15.2409 11.7406 14.8819 11.8892 14.6116 12.1594L14.0768 12.6943C13.7501 13.021 13.1333 13.0224 12.8041 12.6983L10.6699 10.4747C10.6668 10.4714 10.6636 10.468 10.6603 10.4649C10.333 10.1376 10.333 9.60503 10.6603 9.27777L11.1951 8.74292C11.7542 8.18385 11.7542 7.27927 11.1951 6.72038L9.05555 4.5808C8.49806 4.02332 7.59085 4.02332 7.03319 4.5808L6.49833 5.11583C5.73238 5.88196 5.47706 7.51476 5.83188 9.37762ZM7.45099 6.06849C8.01252 5.51978 7.98251 5.50925 8.04445 5.50925C8.06569 5.50925 8.08692 5.51732 8.10306 5.53346C10.3576 7.80009 10.267 7.6669 10.267 7.73183C10.267 7.75446 10.2588 7.77429 10.2428 7.79044L9.70779 8.32529C8.85586 9.17722 8.85252 10.5563 9.70235 11.4121L11.8377 13.6371C11.8411 13.6403 11.8442 13.6436 11.8475 13.6469C12.6993 14.4987 14.1749 14.5015 15.0295 13.6469L15.5643 13.1121C15.5966 13.0798 15.6492 13.0798 15.6815 13.1121C17.936 15.3785 17.8455 15.2454 17.8455 15.3103C17.8455 15.3331 17.8372 15.3528 17.8213 15.3689L17.2863 15.9037C16.9197 16.2703 15.7521 16.4897 14.2291 16.1996C13.2128 16.0059 11.2585 15.4321 9.59057 13.7642C7.92267 12.0963 7.34887 10.142 7.15532 9.12563C6.86508 7.60268 7.08442 6.43488 7.45099 6.06849Z" fill="white"/>
</svg>
