<svg width="31" height="23" viewBox="0 0 31 23" fill="none" xmlns="http://www.w3.org/2000/svg">
<path d="M4.42308 23H25.7718C28.2107 23 30.1949 21.0158 30.1949 18.5769V4.42308C30.1949 1.98416 28.2107 0 25.7718 0H4.42308C1.98416 0 0 1.98416 0 4.42308V18.5769C0 21.0158 1.98416 23 4.42308 23ZM1.76923 4.42308C1.76923 2.95978 2.95978 1.76923 4.42308 1.76923H25.7718C27.2351 1.76923 28.4256 2.95978 28.4256 4.42308V18.5769C28.4256 20.0402 27.2351 21.2308 25.7718 21.2308H4.42308C2.95978 21.2308 1.76923 20.0402 1.76923 18.5769V4.42308Z" fill="white"/>
<path d="M10.6744 5.57354V17.5983L21.3192 11.4873L10.6744 5.57354ZM12.4436 8.58031L17.7218 11.5127L12.4436 14.5427V8.58031Z" fill="white"/>
</svg>
